<?xml version="1.0" standalone="no"?>
<!DOCTYPE svg PUBLIC "-//W3C//DTD SVG 20010904//EN"
 "http://www.w3.org/TR/2001/REC-SVG-20010904/DTD/svg10.dtd">
<svg version="1.0" xmlns="http://www.w3.org/2000/svg"
 width="700.000000pt" height="700.000000pt" viewBox="0 0 700.000000 700.000000"
 preserveAspectRatio="xMidYMid meet">
<metadata>
Created by potrace 1.11, written by Peter Selinger 2001-2013
</metadata>
<g transform="translate(0.000000,700.000000) scale(0.100000,-0.100000)"
fill="#000000" stroke="none">
<path d="M2089 5738 c-11 -21 -449 -708 -604 -948 -33 -52 -87 -136 -118 -185
l-57 -91 0 -1140 0 -1140 -196 -334 c-108 -184 -204 -348 -214 -365 -9 -16
-57 -97 -105 -180 -93 -157 -99 -169 -319 -545 -76 -129 -153 -260 -171 -290
-18 -30 -42 -71 -53 -90 -29 -51 -210 -359 -234 -397 l-20 -33 1631 0 1631 0
0 30 c0 17 -9 57 -20 90 -56 166 -252 391 -535 614 -175 137 -191 152 -238
224 -67 102 -113 229 -138 382 -6 36 -13 79 -16 95 -12 68 -10 514 2 634 20
185 4 166 144 165 66 0 122 -2 125 -5 2 -2 6 -44 9 -94 3 -49 8 -103 12 -120
3 -16 10 -55 16 -85 34 -172 147 -378 281 -512 167 -168 356 -259 638 -307
321 -56 660 -135 818 -192 519 -188 819 -453 958 -849 l22 -65 831 -3 830 -2
-65 112 c-37 62 -118 201 -181 308 -63 107 -118 202 -123 210 -5 8 -28 49 -52
90 -25 41 -70 118 -100 170 -31 52 -161 273 -288 490 -128 217 -244 415 -258
440 -14 25 -35 61 -47 80 -12 19 -33 55 -47 80 -33 59 -141 244 -145 250 -2 2
-344 4 -761 5 l-757 0 0 690 0 690 -105 150 c-57 83 -108 155 -113 160 -9 11
-41 57 -257 366 l-155 221 -25 -32 c-19 -25 -357 -505 -429 -609 -6 -9 -48
-69 -93 -133 l-83 -118 -5 453 -5 452 -95 147 c-52 82 -122 191 -155 243 -232
369 -540 845 -547 845 -4 0 -13 -10 -19 -22z"/>
</g>
</svg>
