<?xml version="1.0" encoding="UTF-8" standalone="no"?>
<!DOCTYPE svg PUBLIC "-//W3C//DTD SVG 1.1//EN" "http://www.w3.org/Graphics/SVG/1.1/DTD/svg11.dtd">
<svg width="100%" height="100%" viewBox="0 0 500 500" version="1.1" xmlns="http://www.w3.org/2000/svg" xmlns:xlink="http://www.w3.org/1999/xlink" xml:space="preserve" xmlns:serif="http://www.serif.com/" style="fill-rule:evenodd;clip-rule:evenodd;stroke-linejoin:round;stroke-miterlimit:2;">
    <rect id="Artboard1" x="0" y="0" width="500" height="500" style="fill:none;"/>
    <clipPath id="_clip1">
        <rect id="Artboard11" serif:id="Artboard1" x="0" y="0" width="500" height="500"/>
    </clipPath>
    <g clip-path="url(#_clip1)">
        <path d="M207.892,241.937L253.088,177.493L298.285,241.937L298.285,340.444L406.389,340.444L500,500L93.611,500L93.611,177.493L150.752,88.048L207.892,177.493L207.892,340.444L166.863,340.444C166.863,340.444 153.956,418.111 184.559,440.826C238.051,480.53 232.892,500 232.892,500L381.389,500C365.131,445.116 311.073,430.32 250,420.222C207.082,413.126 184.31,378.541 184.929,340.444L207.892,340.444L207.892,241.937ZM93.611,340.444L93.611,500L0,500L93.611,340.444Z" style="fill:rgb(51,51,51);"/>
    </g>
</svg>
