<?xml version="1.0" encoding="UTF-8" standalone="no"?>
<!DOCTYPE svg PUBLIC "-//W3C//DTD SVG 1.1//EN" "http://www.w3.org/Graphics/SVG/1.1/DTD/svg11.dtd">
<svg width="100%" height="100%" viewBox="0 0 500 500" version="1.1" xmlns="http://www.w3.org/2000/svg" xmlns:xlink="http://www.w3.org/1999/xlink" xml:space="preserve" xmlns:serif="http://www.serif.com/" style="fill-rule:evenodd;clip-rule:evenodd;stroke-linecap:round;stroke-linejoin:round;stroke-miterlimit:1.5;">
    <rect id="Artboard1" x="0" y="0" width="500" height="500" style="fill:none;"/>
    <clipPath id="_clip1">
        <rect id="Artboard11" serif:id="Artboard1" x="0" y="0" width="500" height="500"/>
    </clipPath>
    <g clip-path="url(#_clip1)">
        <g transform="matrix(0.583449,0,0,0.846698,0.0324158,76.2746)">
            <path d="M160.389,312L160.389,500.444L-0.056,500.444L160.389,312Z" style="fill:rgb(51,51,51);"/>
        </g>
        <g transform="matrix(-0.583449,0,0,0.846698,499.968,76.2746)">
            <path d="M160.389,312L160.389,500.444L-0.056,500.444L160.389,312Z" style="fill:rgb(51,51,51);"/>
        </g>
        <g transform="matrix(1.29604,0,0,0.918291,-60.1137,40.8546)">
            <rect x="118.611" y="326.247" width="241.333" height="173.753" style="fill:rgb(51,51,51);"/>
        </g>
        <g transform="matrix(1.58236,0,0,1,-59.5311,0)">
            <rect x="96.781" y="177.493" width="72.222" height="162.952" style="fill:rgb(51,51,51);"/>
        </g>
        <g transform="matrix(0.846528,0,0,0.817259,6.03961,32.4352)">
            <path d="M170.948,68.048L238.448,177.493L103.448,177.493L170.948,68.048Z" style="fill:rgb(51,51,51);"/>
        </g>
        <g transform="matrix(1.25159,0,0,0.604518,86.7623,134.64)">
            <rect x="96.781" y="177.493" width="72.222" height="162.952" style="fill:rgb(51,51,51);"/>
        </g>
        <g transform="matrix(0.669573,0,0,0.588833,138.626,137.424)">
            <path d="M170.948,68.048L238.448,177.493L103.448,177.493L170.948,68.048Z" style="fill:rgb(51,51,51);"/>
        </g>
        <path d="M232.892,500C232.892,500 238.051,480.53 184.559,440.826C153.956,418.111 166.863,340.444 166.863,340.444L184.929,340.444C184.31,378.541 207.082,413.126 250,420.222C311.073,430.32 365.131,445.116 381.389,500L232.892,500Z" style="fill:white;stroke:white;stroke-width:1px;"/>
    </g>
</svg>
