<svg width="181" height="99" viewBox="0 0 181 99" fill="none" xmlns="http://www.w3.org/2000/svg">
<path d="M40.0831 10.7C40.0831 8.828 40.5511 7.088 41.4871 5.48C42.4231 3.872 43.6831 2.6 45.2671 1.664C46.8751 0.727998 48.6271 0.259999 50.5231 0.259999C52.4191 0.259999 54.1591 0.727998 55.7431 1.664C57.3511 2.6 58.6231 3.872 59.5591 5.48C60.4951 7.088 60.9631 8.828 60.9631 10.7V16.244C60.9631 18.116 60.4951 19.856 59.5591 21.464C58.6231 23.072 57.3511 24.344 55.7431 25.28C54.1591 26.216 52.4191 26.684 50.5231 26.684C48.6271 26.684 46.8751 26.216 45.2671 25.28C43.6831 24.344 42.4231 23.072 41.4871 21.464C40.5511 19.856 40.0831 18.116 40.0831 16.244V10.7ZM46.6351 16.244C46.6351 17.396 46.9951 18.38 47.7151 19.196C48.4351 20.012 49.3711 20.42 50.5231 20.42C51.6511 20.42 52.5751 20.012 53.2951 19.196C54.0151 18.38 54.3751 17.396 54.3751 16.244V10.664C54.3751 9.488 54.0151 8.504 53.2951 7.712C52.5751 6.92 51.6511 6.524 50.5231 6.524C49.3711 6.524 48.4351 6.92 47.7151 7.712C46.9951 8.504 46.6351 9.488 46.6351 10.664V16.244ZM78.9356 0.943999C80.5196 0.943999 81.7796 1.184 82.7156 1.664C83.8436 2.24 84.7076 3.032 85.3076 4.04C85.9316 5.048 86.2436 6.176 86.2436 7.424C86.2436 8.6 85.9316 9.692 85.3076 10.7C84.6836 11.684 83.8316 12.464 82.7516 13.04C84.0476 13.496 85.1396 14.288 86.0276 15.416C86.9156 16.544 87.3596 17.816 87.3596 19.232C87.3596 20.48 87.0356 21.632 86.3876 22.688C85.7636 23.72 84.9236 24.536 83.8676 25.136C83.3396 25.424 82.7516 25.64 82.1036 25.784C81.4556 25.928 80.5916 26 79.5116 26H68.4236V0.943999H78.9356ZM104 26.648C100.52 26.648 97.832 25.832 95.936 24.2C94.064 22.544 93.14 20.072 93.164 16.784H99.032C99.008 18.152 99.416 19.196 100.256 19.916C101.096 20.636 102.272 20.996 103.784 20.996C105.032 20.996 106.016 20.792 106.736 20.384C107.456 19.976 107.816 19.352 107.816 18.512C107.816 17.816 107.444 17.312 106.7 17C105.98 16.688 105.26 16.472 104.54 16.352C103.82 16.208 103.376 16.124 103.208 16.1C101.36 15.74 99.764 15.308 98.42 14.804C97.076 14.276 95.948 13.484 95.036 12.428C94.124 11.372 93.668 9.98 93.668 8.252C93.668 6.524 94.124 5.06 95.036 3.86C95.948 2.636 97.16 1.724 98.672 1.124C100.208 0.523999 101.876 0.223999 103.676 0.223999C105.86 0.223999 107.744 0.631999 109.328 1.448C110.936 2.264 112.196 3.5 113.108 5.156C113.564 5.948 113.84 6.716 113.936 7.46C114.032 8.18 114.08 8.888 114.08 9.584H108.212C108.212 8.288 107.864 7.34 107.168 6.74C106.472 6.116 105.392 5.804 103.928 5.804C102.752 5.804 101.84 6.008 101.192 6.416C100.544 6.824 100.22 7.376 100.22 8.072C100.22 8.84 100.652 9.404 101.516 9.764C102.38 10.124 103.472 10.448 104.792 10.736C106.952 11.168 108.632 11.588 109.832 11.996C111.056 12.38 112.112 13.076 113 14.084C113.888 15.092 114.332 16.508 114.332 18.332C114.332 20.06 113.852 21.548 112.892 22.796C111.932 24.044 110.66 25.004 109.076 25.676C107.516 26.324 105.824 26.648 104 26.648ZM129.82 26V7.28H120.352V0.943999H140.584V7.28H131.116V26H129.82Z" fill="#38408E"/>
<path d="M23.5547 62.648C20.0747 62.648 17.3867 61.832 15.4907 60.2C13.6187 58.544 12.6947 56.072 12.7187 52.784H18.5867C18.5627 54.152 18.9707 55.196 19.8107 55.916C20.6507 56.636 21.8267 56.996 23.3387 56.996C24.5867 56.996 25.5707 56.792 26.2907 56.384C27.0107 55.976 27.3707 55.352 27.3707 54.512C27.3707 53.816 26.9987 53.312 26.2547 53C25.5347 52.688 24.8147 52.472 24.0947 52.352C23.3747 52.208 22.9307 52.124 22.7627 52.1C20.9147 51.74 19.3187 51.308 17.9747 50.804C16.6307 50.276 15.5027 49.484 14.5907 48.428C13.6787 47.372 13.2227 45.98 13.2227 44.252C13.2227 42.524 13.6787 41.06 14.5907 39.86C15.5027 38.636 16.7147 37.724 18.2267 37.124C19.7627 36.524 21.4307 36.224 23.2307 36.224C25.4147 36.224 27.2987 36.632 28.8827 37.448C30.4907 38.264 31.7507 39.5 32.6627 41.156C33.1187 41.948 33.3947 42.716 33.4907 43.46C33.5867 44.18 33.6347 44.888 33.6347 45.584H27.7667C27.7667 44.288 27.4187 43.34 26.7227 42.74C26.0267 42.116 24.9467 41.804 23.4827 41.804C22.3067 41.804 21.3947 42.008 20.7467 42.416C20.0987 42.824 19.7747 43.376 19.7747 44.072C19.7747 44.84 20.2067 45.404 21.0707 45.764C21.9347 46.124 23.0267 46.448 24.3467 46.736C26.5067 47.168 28.1867 47.588 29.3867 47.996C30.6107 48.38 31.6667 49.076 32.5547 50.084C33.4427 51.092 33.8867 52.508 33.8867 54.332C33.8867 56.06 33.4067 57.548 32.4467 58.796C31.4867 60.044 30.2147 61.004 28.6307 61.676C27.0707 62.324 25.3787 62.648 23.5547 62.648ZM49.3751 62V43.28H39.9071V36.944H60.1391V43.28H50.6711V62H49.3751ZM87.0396 62H67.7796V36.944H77.5356C79.6236 36.944 81.3276 37.316 82.6476 38.06C83.9436 38.78 84.9516 39.764 85.6716 41.012C86.3916 42.26 86.7516 43.64 86.7516 45.152C86.7516 47.024 86.1756 48.704 85.0236 50.192C83.8716 51.656 82.4196 52.628 80.6676 53.108L87.0396 62ZM70.0476 38.276L79.8396 51.956C81.4476 51.62 82.7796 50.816 83.8356 49.544C84.8916 48.272 85.4196 46.808 85.4196 45.152C85.4196 43.832 85.0956 42.632 84.4476 41.552C83.7996 40.472 82.8876 39.644 81.7116 39.068C80.6556 38.54 79.2756 38.276 77.5716 38.276H70.0476ZM69.1116 39.14V52.064H78.3636L69.1116 39.14ZM69.1116 60.668H84.5196L79.2636 53.36L78.1476 53.396H69.1116V60.668ZM115.128 62H91.512L103.32 36.404L115.128 62ZM93.6 60.668H113.04L103.32 39.572L93.6 60.668ZM120.212 61.964V36.908H121.616L139.112 53.936V36.908H140.444V61.964H120.212ZM147.617 62V36.944H156.941C158.765 36.944 160.445 37.4 161.981 38.312C163.541 39.224 164.777 40.46 165.689 42.02C166.601 43.556 167.057 45.236 167.057 47.06V51.884C167.057 53.708 166.601 55.4 165.689 56.96C164.777 58.496 163.541 59.72 161.981 60.632C160.445 61.544 158.765 62 156.941 62H147.617Z" fill="#38408E" fill-opacity="0.7"/>
<path d="M0.434469 72.908H1.87447L10.6225 88.388L19.3345 72.908H20.6665V97.964H0.434469V72.908ZM1.76647 96.668H19.3345V75.608L11.2345 89.864H9.97447L1.76647 75.392V96.668ZM37.1989 98.54C35.3749 98.54 33.6829 98.084 32.1229 97.172C30.5869 96.26 29.3629 95.036 28.4509 93.5C27.5389 91.94 27.0829 90.248 27.0829 88.424V72.944H47.3149V88.424C47.3149 90.248 46.8589 91.94 45.9469 93.5C45.0349 95.036 43.7989 96.26 42.2389 97.172C40.7029 98.084 39.0229 98.54 37.1989 98.54ZM64.0273 98.648C60.5473 98.648 57.8593 97.832 55.9633 96.2C54.0913 94.544 53.1673 92.072 53.1913 88.784H59.0593C59.0353 90.152 59.4433 91.196 60.2833 91.916C61.1233 92.636 62.2993 92.996 63.8113 92.996C65.0593 92.996 66.0433 92.792 66.7633 92.384C67.4833 91.976 67.8433 91.352 67.8433 90.512C67.8433 89.816 67.4713 89.312 66.7273 89C66.0073 88.688 65.2873 88.472 64.5673 88.352C63.8473 88.208 63.4033 88.124 63.2353 88.1C61.3873 87.74 59.7913 87.308 58.4473 86.804C57.1033 86.276 55.9753 85.484 55.0633 84.428C54.1513 83.372 53.6953 81.98 53.6953 80.252C53.6953 78.524 54.1513 77.06 55.0633 75.86C55.9753 74.636 57.1873 73.724 58.6993 73.124C60.2353 72.524 61.9033 72.224 63.7033 72.224C65.8873 72.224 67.7713 72.632 69.3553 73.448C70.9633 74.264 72.2233 75.5 73.1353 77.156C73.5913 77.948 73.8673 78.716 73.9633 79.46C74.0593 80.18 74.1073 80.888 74.1073 81.584H68.2393C68.2393 80.288 67.8913 79.34 67.1953 78.74C66.4993 78.116 65.4193 77.804 63.9553 77.804C62.7793 77.804 61.8673 78.008 61.2193 78.416C60.5713 78.824 60.2473 79.376 60.2473 80.072C60.2473 80.84 60.6793 81.404 61.5433 81.764C62.4073 82.124 63.4993 82.448 64.8193 82.736C66.9793 83.168 68.6593 83.588 69.8593 83.996C71.0833 84.38 72.1393 85.076 73.0273 86.084C73.9153 87.092 74.3593 88.508 74.3593 90.332C74.3593 92.06 73.8793 93.548 72.9193 94.796C71.9593 96.044 70.6873 97.004 69.1033 97.676C67.5433 98.324 65.8513 98.648 64.0273 98.648ZM82.3958 79.28V72.944H98.5958V79.28H91.1438V91.664H98.5958V98H82.3958V91.664H89.8478V79.28H82.3958ZM117.504 83.384L127.944 98H107.784V72.944H127.944L117.504 83.384ZM116.568 84.32L109.116 91.772V96.668H125.388L116.568 84.32ZM134.793 72.944H153.045V79.28H141.345V82.448H151.065V88.46H141.345V91.664H153.045V98H134.793V72.944ZM180.809 98H161.549V72.944H171.305C173.393 72.944 175.097 73.316 176.417 74.06C177.713 74.78 178.721 75.764 179.441 77.012C180.161 78.26 180.521 79.64 180.521 81.152C180.521 83.024 179.945 84.704 178.793 86.192C177.641 87.656 176.189 88.628 174.437 89.108L180.809 98ZM163.817 74.276L173.609 87.956C175.217 87.62 176.549 86.816 177.605 85.544C178.661 84.272 179.189 82.808 179.189 81.152C179.189 79.832 178.865 78.632 178.217 77.552C177.569 76.472 176.657 75.644 175.481 75.068C174.425 74.54 173.045 74.276 171.341 74.276H163.817ZM162.881 75.14V88.064H172.133L162.881 75.14ZM162.881 96.668H178.289L173.033 89.36L171.917 89.396H162.881V96.668Z" fill="#38408E" fill-opacity="0.3"/>
</svg>
